<?xml version="1.0" encoding="utf-8"?>
<!-- Generator: Adobe Illustrator 25.4.1, SVG Export Plug-In . SVG Version: 6.00 Build 0)  -->
<svg version="1.1" id="Layer_1" xmlns="http://www.w3.org/2000/svg" xmlns:xlink="http://www.w3.org/1999/xlink" x="0px" y="0px"
	 viewBox="0 0 128 128" style="enable-background:new 0 0 128 128;" xml:space="preserve">
<style type="text/css">
	.st0{clip-path:url(#SVGID_00000100368651722172890680000013343838140891992726_);}
	.st1{fill:#FFCC00;}
	.st2{clip-path:url(#SVGID_00000065796709866890714500000016491337309144582805_);}
</style>
<g>
	<defs>
		<rect id="SVGID_1_" y="0" width="128" height="128"/>
	</defs>
	<clipPath id="SVGID_00000080923521514800753040000016863892819858233523_">
		<use xlink:href="#SVGID_1_"  style="overflow:visible;"/>
	</clipPath>
	<g style="clip-path:url(#SVGID_00000080923521514800753040000016863892819858233523_);">
		<path class="st1" d="M106.3,7.8c10.7,8.3,14.4,24.8,17.6,41.5s5.5,33.4-0.7,46.9c-6.3,13.4-21.3,23.6-37.4,28.1
			c-16.2,4.6-33.5,3.7-48.1-2.3C23,116,11,105.1,5.4,92.2c-5.5-12.8-4.6-27.5-1.5-41.3C7,37,12.2,24,22.1,15.5
			c9.8-8.5,24-12.4,40-14.3C78.1-0.6,95.7-0.5,106.3,7.8z"/>
		<g>
			<defs>
				<rect id="SVGID_00000019644473890832692800000014566226667430977454_" x="15" y="15" width="98" height="98"/>
			</defs>
			<clipPath id="SVGID_00000121958200162467140540000017009706552769933443_">
				<use xlink:href="#SVGID_00000019644473890832692800000014566226667430977454_"  style="overflow:visible;"/>
			</clipPath>
			<g style="clip-path:url(#SVGID_00000121958200162467140540000017009706552769933443_);">
				<path d="M67.2,21.2c-1-0.1-2.1-0.1-3.2-0.1V15c1.2,0,2.4,0,3.6,0.1L67.2,21.2z M79.4,24c-2-0.8-4-1.4-6-1.8l1.3-6
					c2.3,0.5,4.7,1.2,6.9,2.1L79.4,24z M87.8,28.3c-0.9-0.6-1.8-1.1-2.7-1.7l3-5.3c2.1,1.2,4.1,2.5,6,4l-3.8,4.8
					C89.6,29.6,88.7,28.9,87.8,28.3L87.8,28.3z M99.1,39.3c-1.2-1.7-2.5-3.4-4-4.9l4.4-4.2c1.7,1.7,3.2,3.6,4.6,5.6L99.1,39.3z
					 M103.6,47.6c-0.4-1-0.8-1.9-1.3-2.9l5.5-2.8c1.1,2.2,2,4.4,2.8,6.7l-5.8,1.9C104.4,49.6,104,48.6,103.6,47.6z M106.9,62.9
					c-0.1-2.1-0.3-4.2-0.6-6.3l6-1c0.4,2.4,0.7,4.8,0.7,7.2L106.9,62.9L106.9,62.9z M106.1,72.4c0.2-1,0.4-2.1,0.5-3.1l6.1,0.8
					c-0.3,2.4-0.8,4.8-1.4,7.1l-5.9-1.6C105.6,74.4,105.8,73.4,106.1,72.4z M100.2,86.9c1.1-1.8,2.1-3.6,3-5.6l5.6,2.5
					c-1,2.2-2.1,4.3-3.4,6.4L100.2,86.9z M94.3,94.3c0.7-0.7,1.5-1.5,2.1-2.3l4.6,4c-0.8,0.9-1.6,1.8-2.5,2.6L94.3,94.3z"/>
				<path d="M64,21.1c-7.1,0-14,1.7-20.2,5.1s-11.5,8.1-15.4,14c-3.9,5.9-6.3,12.6-7,19.6c-0.7,7,0.4,14.1,3.1,20.6
					c2.7,6.5,7,12.3,12.4,16.7c5.5,4.5,11.9,7.5,18.8,8.9s14.1,1,20.8-1c6.7-2,12.9-5.7,17.9-10.7l4.3,4.3
					c-5.7,5.7-12.7,9.9-20.4,12.2c-7.7,2.3-15.9,2.7-23.8,1.2c-7.9-1.6-15.3-5.1-21.5-10.2c-6.2-5.1-11.1-11.7-14.2-19.1
					c-3.1-7.4-4.3-15.5-3.5-23.6c0.8-8,3.5-15.7,8-22.4c4.5-6.7,10.5-12.2,17.7-16C48,17,55.9,15,64,15V21.1z"/>
				<path d="M60.9,33.4c0.8,0,1.6,0.3,2.2,0.9s0.9,1.4,0.9,2.2v31.9l19.9,11.4c0.7,0.4,1.2,1.1,1.4,1.9c0.2,0.8,0.1,1.6-0.3,2.3
					c-0.4,0.7-1,1.2-1.8,1.4c-0.8,0.2-1.6,0.1-2.3-0.3L59.4,72.8c-0.5-0.3-0.9-0.7-1.1-1.1c-0.3-0.5-0.4-1-0.4-1.5V36.4
					c0-0.8,0.3-1.6,0.9-2.2S60.1,33.4,60.9,33.4z"/>
			</g>
		</g>
	</g>
</g>
</svg>
